<svg xmlns="http://www.w3.org/2000/svg" viewBox="0 0 553.11 364.42"><defs><style>.cls-1{fill:#a52b00;}.cls-2{fill:#f74c00;}.cls-3{fill:#231f20;}.cls-4{fill:#fff;}.cls-5{fill:#9f4e24;}</style></defs><g id="Layer_2" data-name="Layer 2"><g id="Layer_1-2" data-name="Layer 1"><g id="Layer-1"><path class="cls-1" d="M275.24,157.11c-60.14,0-114.79,7.23-155.24,19V276.77c40.45,11.78,95.1,19,155.24,19,68.83,0,130.46-9.47,171.85-24.39V181.51c-41.39-14.93-103-24.4-171.85-24.4"/><path class="cls-1" d="M509.08,238.89,502,224.28c0-.55.07-1.11.07-1.66,0-16.56-17.22-31.82-46.18-44v88.07c13.51-5.7,24.48-12.06,32.32-18.91C485.93,257,478,275.79,471.74,289c-10.34,18.89-14.08,35.32-13.6,36.14.3.51,3.83-4.93,9-13.75,12.11-17.26,35.06-50.2,39.64-58.59,5.2-9.51,2.27-13.9,2.27-13.9"/><path class="cls-1" d="M52.86,223.58A25,25,0,0,0,54.74,233l-4.22,7.52s-3.38,4.38,2.57,13.64c5.26,8.16,31.57,40.12,45.46,56.85,6,8.58,10,13.86,10.36,13.35.56-.81-3.71-16.91-15.55-35.29a337.61,337.61,0,0,1-16.1-32.6c11.07,7,25.54,13.35,42.74,18.82V171.88c-41.44,13.17-67.14,31.47-67.14,51.7"/><path class="cls-2" d="M550,238.8l-46.34-34.13c-.44-1.52-.87-3-1.32-4.54l15.22-22.06a8.26,8.26,0,0,0,.86-7.71,7.72,7.72,0,0,0-5.84-4.82l-25.73-4.37c-1-2-2.05-4-3.1-6l10.82-24.76a8.21,8.21,0,0,0-.6-7.74,7.52,7.52,0,0,0-6.62-3.54l-26.12,1c-1.35-1.76-2.73-3.51-4.13-5.22l6-26.53a8.22,8.22,0,0,0-2-7.48,7.45,7.45,0,0,0-7.16-2.12L428.49,85c-1.65-1.45-3.32-2.89-5-4.3l.92-27.24a8,8,0,0,0-3.4-6.91,7.38,7.38,0,0,0-7.42-.63L389.84,57.17c-1.91-1.1-3.83-2.18-5.78-3.23l-4.19-26.85A7.92,7.92,0,0,0,375.24,21a7.36,7.36,0,0,0-7.38.89L346.69,37.78c-2.08-.69-4.17-1.35-6.29-2l-9.12-25.46a7.74,7.74,0,0,0-5.68-5,7.47,7.47,0,0,0-7.07,2.38L300.72,27.61c-2.16-.25-4.31-.48-6.47-.66L280.49,3.78a7.48,7.48,0,0,0-13,0L253.74,27c-2.17.18-4.33.41-6.48.66L229.45,7.68a7.5,7.5,0,0,0-7.08-2.38,7.71,7.71,0,0,0-5.67,5l-9.13,25.46c-2.12.64-4.21,1.3-6.3,2L180.12,21.9a7.35,7.35,0,0,0-7.4-.89,7.91,7.91,0,0,0-4.62,6.08l-4.2,26.85C162,55,160,56.07,158.12,57.17L134.39,45.88a7.38,7.38,0,0,0-7.42.63,8.06,8.06,0,0,0-3.39,6.91l.91,27.24c-1.69,1.41-3.36,2.85-5,4.3L94,78.71a7.45,7.45,0,0,0-7.16,2.12,8.23,8.23,0,0,0-2,7.48l6,26.53q-2.08,2.58-4.11,5.22l-26.12-1A7.61,7.61,0,0,0,54,122.65a8.27,8.27,0,0,0-.6,7.74l10.82,24.76c-1.05,2-2.09,4-3.1,6l-25.74,4.37a7.72,7.72,0,0,0-5.83,4.82,8.29,8.29,0,0,0,.86,7.71L45.6,200.13c-.12.38-.23.78-.35,1.17L2.21,247s-6.6,5.17,3,17.32c8.47,10.72,52,53.2,74.91,75.46,9.7,11.3,16.35,18.3,17,17.7,1.1-1-4.65-21.53-23.76-45.65-14.73-21.64-33.84-54.93-29.36-58.77,0,0,5.1-6.47,15.33-11.12h0s215.86,99.57,416.1,1.68c22.87-4.1,36.72,8.15,36.72,8.15,4.77,2.77-7.59,37-17.76,59.65-13.83,25.73-15.86,45.81-14.69,46.5.74.44,5.77-7.21,12.95-19.4,17.71-24.68,51.19-71.72,57.32-83.15,7-12.95,0-16.59,0-16.59"/><path d="M202.31,302.7c-.83-.71-1.26-1.12-1.26-1.12l70.71-5.8c-57.68-76.09-103.89-15.47-108.81-8.69V302.7Z"/><path d="M349.54,301.88c.82-.7,1.25-1.12,1.25-1.12l-68-5c57.71-79.21,101.13-16.29,106.05-9.51v15.61Z"/><path class="cls-2" d="M458.16,226.34s-7.73,30.77-55.78,63.11l-13.48,3.16s-43.59-79.5-105.35,10.09c0,0,19.24-11.21,70.84,2.44,0,0-23.73,36.33-71.55,35.21,0,0,45.82,55,115.55-24.43,0,0,73.72-28.5,79.69-89.58Z"/><path class="cls-2" d="M197.88,308.44c45.55-5.74,71.88-6.28,71.88-6.28-60.95-80.4-110.41-7.61-110.41-7.61-12.39-4.43-25-21.63-34.46-37.49L87.07,245.85c43.59,74,76,75.12,76,75.12,67.57,86.6,99.58,17,99.58,17-37.93-4.31-64.81-29.54-64.81-29.54"/></g></g><g id="Layer_2-2" data-name="Layer 2"><path class="cls-3" d="M302.6,257a8.74,8.74,0,0,1-2.69-.43,75.24,75.24,0,0,0-46.73,0,8.69,8.69,0,1,1-5.36-16.54,92.5,92.5,0,0,1,57.46,0,8.7,8.7,0,0,1-2.68,17Z"/><path class="cls-4" d="M383.8,127.19a59.6,59.6,0,0,1-56.46,41c-1.26,0-2.52-.05-3.79-.13a58.87,58.87,0,0,1-34.34-13.77c.31,4.31.66,8.67,1.18,13.39a34.64,34.64,0,0,0,18.4,27.5c7.13,3.95,15.65,6,24.46,6.54,15.07.95,31-2.43,42.37-7.9,12-5.78,19.75-16.19,21.35-28.56S393.89,139.83,383.8,127.19Z"/><path class="cls-3" d="M305.69,88.2c-11.28,4.78-16.93,20-17.19,46l.34.59a46.42,46.42,0,0,0,35.54,20.28q1.49.09,3,.09A46.35,46.35,0,0,0,373,115.81c-1-.91-1.92-1.84-3-2.75C337.74,85.5,313.81,84.75,305.69,88.2Z"/><path class="cls-5" d="M327.34,168.19a59.6,59.6,0,0,0,56.46-41A101.49,101.49,0,0,0,373,115.81a46.34,46.34,0,0,1-45.67,39.33q-1.48,0-3-.09a46.42,46.42,0,0,1-35.54-20.28l-.34-.59q-.09,9.15.72,20.11a58.87,58.87,0,0,0,34.34,13.77C324.82,168.15,326.08,168.19,327.34,168.19Z"/><circle class="cls-4" cx="306.23" cy="115.34" r="9.62"/><path class="cls-4" d="M225.77,168.19a59.6,59.6,0,0,1-56.46-41c-10.1,12.64-14.76,25.76-13.18,38.06s9.39,22.79,21.36,28.56c11.33,5.47,27.28,8.85,42.37,7.9,8.8-.55,17.32-2.58,24.45-6.54a34.64,34.64,0,0,0,18.4-27.5c.52-4.71.87-9.06,1.18-13.35a59.11,59.11,0,0,1-34.34,13.74C228.28,168.15,227,168.19,225.77,168.19Z"/><path class="cls-3" d="M225.77,155.14c1,0,2,0,3-.09a46.43,46.43,0,0,0,35.55-20.28l.33-.59c-.26-26-5.91-41.2-17.18-46-8.12-3.45-32.06-2.7-64.35,24.85-1.06.91-2,1.84-3,2.75A46.34,46.34,0,0,0,225.77,155.14Z"/><path class="cls-5" d="M264.61,134.18l-.34.59a46.42,46.42,0,0,1-35.55,20.28c-1,.06-2,.09-3,.09a46.34,46.34,0,0,1-45.67-39.33,100.59,100.59,0,0,0-10.79,11.38,59.6,59.6,0,0,0,56.46,41c1.25,0,2.51-.05,3.78-.13a59,59,0,0,0,34.34-13.73C264.42,147,264.68,140.29,264.61,134.18Z"/><path class="cls-4" d="M205.09,125a9.63,9.63,0,1,0-10.21-9A9.62,9.62,0,0,0,205.09,125Z"/></g></g></svg>